<svg width="68" height="18" viewBox="0 0 68 18" fill="none" xmlns="http://www.w3.org/2000/svg">
<path d="M11.362 17H15.85L10.746 8.662L15.432 1.226H10.966L8.37 5.604L5.774 1.226H1.352L5.95 8.662L0.824 17H5.466L8.414 12.028L11.362 17ZM21.6697 17.352C25.6297 17.352 27.5657 15.46 27.5657 12.908C27.5657 9.938 24.9257 9.388 22.7257 9.102C20.8337 8.86 19.7557 8.728 19.7557 7.936C19.7557 7.32 20.1957 6.858 21.4277 6.858C22.6377 6.858 23.2977 7.342 23.4737 8.222H27.4117C27.0157 5.67 25.2997 3.954 21.4717 3.954C17.8637 3.954 15.9057 5.692 15.9057 8.178C15.9057 11.214 18.5017 11.698 20.7017 11.984C22.2857 12.182 23.6717 12.292 23.6717 13.172C23.6717 13.876 23.1217 14.294 21.8677 14.294C20.5697 14.294 19.7777 13.81 19.5137 12.732H15.3777C15.7957 15.68 17.8637 17.352 21.6697 17.352ZM35.1533 17.33C39.0473 17.33 41.5993 15.174 41.5993 10.928V10.532C41.5993 6.264 39.0033 3.976 35.1753 3.976C31.4133 3.976 28.7293 6.198 28.7293 10.532V10.928C28.7293 15.174 31.0173 17.33 35.1533 17.33ZM35.1753 13.876C33.7013 13.876 32.7113 12.842 32.7113 10.884V10.532C32.7113 8.398 33.7013 7.364 35.1973 7.364C36.7373 7.364 37.6173 8.442 37.6173 10.532V10.884C37.6173 12.886 36.6493 13.876 35.1753 13.876ZM47.3555 17V0.0599991H43.3075V17H47.3555ZM53.629 17V0.0599991H49.581V17H53.629ZM60.8515 14.404C59.8835 14.404 59.3775 14.03 59.3775 13.282C59.3775 12.842 59.5535 12.534 59.9055 12.27C60.3015 12.006 60.7195 11.896 61.8195 11.698C62.5895 11.544 63.1615 11.39 63.5355 11.104V11.874C63.5355 13.128 62.4575 14.404 60.8515 14.404ZM64.1515 17H67.4515V8.86C67.4515 5.912 65.9335 3.976 61.7095 3.976C57.7275 3.976 55.7035 5.934 55.5055 8.904H59.5755C59.6195 7.716 60.3015 7.056 61.7095 7.056C63.0735 7.056 63.5135 7.562 63.5135 8.288C63.5135 9.102 62.7215 9.322 60.7855 9.586C58.7175 9.916 57.7935 10.092 56.7815 10.73C55.7475 11.368 55.1095 12.358 55.1095 13.898C55.1095 16.01 56.4515 17.33 59.2235 17.33C61.5995 17.33 62.9855 16.296 63.7115 14.866L64.1515 17Z" fill="#070708"/>
</svg>
